<?xml version="1.0" encoding="UTF-8" standalone="no"?>
<svg
   xmlns:dc="http://purl.org/dc/elements/1.1/"
   xmlns:cc="http://creativecommons.org/ns#"
   xmlns:rdf="http://www.w3.org/1999/02/22-rdf-syntax-ns#"
   xmlns:svg="http://www.w3.org/2000/svg"
   xmlns="http://www.w3.org/2000/svg"
   width="4.2333336mm"
   height="4.2333336mm"
   viewBox="0 0 4.2333336 4.2333335"
   version="1.1"
   id="svg2028">
  <defs
     id="defs2022" />
  <metadata
     id="metadata2025">
    <rdf:RDF>
      <cc:Work
         rdf:about="">
        <dc:format>image/svg+xml</dc:format>
        <dc:type
           rdf:resource="http://purl.org/dc/dcmitype/StillImage" />
        <dc:title></dc:title>
      </cc:Work>
    </rdf:RDF>
  </metadata>
  <g
     id="g1599"
     style="display:inline"
     transform="translate(-1.3229166,-2.6458333)">
    <path
       id="path1005"
       style="opacity:1;fill:#000000;stroke:none;stroke-width:0.999999px;stroke-linecap:butt;stroke-linejoin:miter;stroke-opacity:1"
       d="m 7,10 v 1 h 4 v -1 z m 4,1 v 3 h 4 v -3 h -1 v 2 h -2 v -2 z m 4,0 h 4 v -1 h -4 z m 4,0 v 1 h 1 v -1 z m 1,1 v 4 h 1 v -4 z m 0,4 h -3 v 4 h 3 v -1 h -2 v -2 h 2 z m 0,4 v 4 h 1 v -4 z m 0,4 h -1 v 1 h 1 z m -1,1 h -4 v 1 h 4 z m -4,0 v -3 h -4 v 3 h 1 v -2 h 2 v 2 z m -4,0 H 7 v 1 h 4 z M 7,25 V 24 H 6 v 1 z M 6,24 V 20 H 5 v 4 z M 6,20 H 9 V 16 H 6 v 1 h 2 v 2 H 6 Z M 6,16 V 12 H 5 v 4 z M 6,12 H 7 V 11 H 6 Z"
       transform="scale(0.26458333)" />
    <path
       style="fill:#51a6dc;fill-opacity:1;stroke:none;stroke-width:0.264583px;stroke-linecap:butt;stroke-linejoin:miter;stroke-opacity:1"
       d="M 1.8520833,2.9104166 H 2.9104166 V 3.175 H 1.8520833 V 4.2333333 H 1.5875 V 3.175 h 0.2645833 z"
       id="path1571" />
    <path
       style="fill:#1c2b53;fill-opacity:1;stroke:none;stroke-width:0.264583px;stroke-linecap:butt;stroke-linejoin:miter;stroke-opacity:1"
       d="M 1.8520833,3.175 H 2.9104166 V 3.7041666 H 2.6458333 V 3.96875 H 2.38125 V 4.2333333 H 1.8520833 Z"
       id="path1573" />
    <path
       style="fill:#ed1b51;fill-opacity:1;stroke:none;stroke-width:0.264583px;stroke-linecap:butt;stroke-linejoin:miter;stroke-opacity:1"
       d="M 3.96875,2.9104166 H 5.0270833 V 3.175 H 5.2916666 V 4.2333333 H 5.0270833 V 3.175 H 3.96875 Z"
       id="path1575" />
    <path
       style="fill:#7f2454;fill-opacity:1;stroke:none;stroke-width:0.264583px;stroke-linecap:butt;stroke-linejoin:miter;stroke-opacity:1"
       d="M 3.96875,3.175 H 5.0270833 V 4.2333333 H 4.4979166 V 3.96875 H 4.2333333 V 3.7041666 H 3.96875 Z"
       id="path1577" />
    <path
       style="fill:#f7ec2f;fill-opacity:1;stroke:none;stroke-width:0.264583px;stroke-linecap:butt;stroke-linejoin:miter;stroke-opacity:1"
       d="M 5.0270833,5.2916666 H 5.2916666 V 6.3499999 H 5.0270833 V 6.6145832 H 3.96875 V 6.3499999 h 1.0583333 z"
       id="path1579" />
    <path
       style="fill:#faa21b;fill-opacity:1;stroke:none;stroke-width:0.264583px;stroke-linecap:butt;stroke-linejoin:miter;stroke-opacity:1"
       d="M 4.4979166,5.2916666 H 5.0270833 V 6.3499999 H 3.96875 V 5.8208333 H 4.2333333 V 5.5562499 h 0.2645833 z"
       id="path1581" />
    <path
       style="fill:#5dbb4d;fill-opacity:1;stroke:none;stroke-width:0.264583px;stroke-linecap:butt;stroke-linejoin:miter;stroke-opacity:1"
       d="M 1.5875,5.2916666 H 1.8520833 V 6.3499999 H 2.9104166 V 6.6145832 H 1.8520833 V 6.3499999 H 1.5875 Z"
       id="path1583" />
    <path
       style="fill:#008751;fill-opacity:1;stroke:none;stroke-width:0.264583px;stroke-linecap:butt;stroke-linejoin:miter;stroke-opacity:1"
       d="M 1.8520833,5.2916666 H 2.38125 V 5.5562499 H 2.6458333 V 5.8208333 H 2.9104166 V 6.3499999 H 1.8520833 Z"
       id="path1585" />
    <path
       style="fill:#fff1e9;fill-opacity:1;stroke:none;stroke-width:0.264583px;stroke-linecap:butt;stroke-linejoin:miter;stroke-opacity:1"
       d="M 2.38125,3.96875 H 2.6458333 V 3.7041666 h 1.5875 V 3.96875 H 4.4979166 V 5.5562499 H 4.2333333 v 0.2645834 h -1.5875 V 5.5562499 H 2.38125 Z"
       id="path1587" />
  </g>
</svg>
