<?xml version="1.0" encoding="UTF-8" standalone="no"?>
<svg
   xmlns:dc="http://purl.org/dc/elements/1.1/"
   xmlns:cc="http://creativecommons.org/ns#"
   xmlns:rdf="http://www.w3.org/1999/02/22-rdf-syntax-ns#"
   xmlns:svg="http://www.w3.org/2000/svg"
   xmlns="http://www.w3.org/2000/svg"
   width="8.2020836mm"
   height="1.3229166mm"
   viewBox="0 0 8.2020836 1.3229166"
   version="1.1"
   id="svg2028">
  <defs
     id="defs2022" />
  <metadata
     id="metadata2025">
    <rdf:RDF>
      <cc:Work
         rdf:about="">
        <dc:format>image/svg+xml</dc:format>
        <dc:type
           rdf:resource="http://purl.org/dc/dcmitype/StillImage" />
        <dc:title></dc:title>
      </cc:Work>
    </rdf:RDF>
  </metadata>
  <g
     id="layer1">
    <g
       id="g951"
       style="display:inline"
       transform="translate(-0.26458333,-0.26458333)">
      <path
         style="fill:#51a6dc;fill-opacity:1;stroke:none;stroke-width:0.264583px;stroke-linecap:butt;stroke-linejoin:miter;stroke-opacity:1"
         d="M 0.26458333,0.26458333 H 0.52916666 V 1.3229166 H 1.3229166 V 1.5875 H 0.26458333 Z"
         id="path925" />
      <path
         style="fill:#ed1b51;fill-opacity:1;stroke:none;stroke-width:0.264583px;stroke-linecap:butt;stroke-linejoin:miter;stroke-opacity:1"
         d="M 1.5875,0.26458333 H 2.38125 V 0.52916666 H 2.1166666 V 1.3229166 H 2.38125 V 1.5875 H 1.5875 V 1.3229166 H 1.8520833 V 0.52916666 H 1.5875 Z"
         id="path927" />
      <path
         style="fill:#5dbb4d;fill-opacity:1;stroke:none;stroke-width:0.264583px;stroke-linecap:butt;stroke-linejoin:miter;stroke-opacity:1"
         d="M 2.6458333,0.26458333 H 2.9104166 V 0.79374999 H 3.175 V 0.52916666 H 3.4395833 V 0.26458333 H 3.7041666 V 0.52916666 H 3.4395833 V 0.79374999 H 3.175 V 1.0583333 H 3.4395833 V 1.3229166 H 3.7041666 V 1.5875 H 3.4395833 V 1.3229166 H 3.175 V 1.0583333 H 2.9104166 V 1.5875 H 2.6458333 Z"
         id="path929" />
      <path
         id="path931"
         style="fill:#faa21b;fill-opacity:1;stroke:none;stroke-width:0.999999px;stroke-linecap:butt;stroke-linejoin:miter;stroke-opacity:1"
         d="m 16,1 v 1 h 2 V 1 Z m 2,1 v 3 h 1 V 2 Z m 0,3 h -2 v 1 h 2 z M 16,5 V 2 h -1 v 3 z"
         transform="scale(0.26458333)" />
      <path
         style="fill:#fff1e9;fill-opacity:1;stroke:none;stroke-width:0.264583px;stroke-linecap:butt;stroke-linejoin:miter;stroke-opacity:1"
         d="m 5.2916666,0.79374999 h 0.79375 V 1.0583333 h -0.79375 z"
         id="path936" />
      <path
         style="fill:#fcccab;fill-opacity:1;stroke:none;stroke-width:0.264583px;stroke-linecap:butt;stroke-linejoin:miter;stroke-opacity:1"
         d="M 6.6145832,0.26458333 H 6.8791666 V 1.3229166 H 7.1437499 V 1.5875 h -0.79375 V 1.3229166 H 6.6145832 V 0.79374999 H 6.3499999 V 0.52916666 h 0.2645833 z"
         id="path938" />
      <path
         style="fill:#fcccab;fill-opacity:1;stroke:none;stroke-width:0.264583px;stroke-linecap:butt;stroke-linejoin:miter;stroke-opacity:1"
         d="m 7.4083332,0.26458333 h 0.79375 V 0.52916666 H 8.4666666 V 0.79374999 H 8.2020832 V 1.0583333 H 7.6729166 v 0.2645833 h 0.79375 V 1.5875 H 7.4083332 V 1.0583333 H 7.6729166 V 0.79374999 H 8.2020832 V 0.52916666 h -0.79375 z"
         id="path940" />
    </g>
  </g>
</svg>
